<svg width="3059" height="1384" viewBox="0 0 3059 1384" fill="none" xmlns="http://www.w3.org/2000/svg">
<g clip-path="url(#clip0_55_604)">
<path d="M1114.73 595.559C1112.91 591.876 1111.32 588.961 1109.96 586.634C1110.8 589.37 1111.93 592.771 1113.5 596.939C1114.7 600.187 1115.98 603.358 1117.24 606.58C1117.83 605.71 1118.39 604.867 1119.01 603.997C1117.57 601.21 1116.11 598.397 1114.7 595.559H1114.73Z" fill="#5D5D5D"/>
<path d="M1339.74 811.842L1345.23 811.893C1339.87 809.924 1334.46 807.776 1329.05 805.474L1339.74 811.842Z" fill="#5D5D5D"/>
<path d="M1272.81 811.228L1331.34 811.765L1183.13 723.39C1209.15 757.272 1239.32 786.705 1272.81 811.228Z" fill="#6B76D2"/>
<path d="M1278.81 815.524C1324.41 847.718 1375.95 870.912 1431.55 883.646L1431.48 883.033C1436.68 882.317 1441.6 881.422 1446.32 880.322L1338.54 816.087L1278.78 815.524H1278.81Z" fill="#5564A0"/>
<path d="M1121.24 608.216C1120.52 609.239 1119.83 610.288 1119.14 611.336C1134.49 648.952 1153.82 683.473 1176.51 714.517L1241.07 753.002C1196 717.637 1153.87 669.665 1121.24 608.216Z" fill="#793EA3"/>
<path d="M1529.08 797.88C1520.41 807.571 1508.67 815.192 1494.34 820.408C1478.85 826.648 1460.11 829.997 1438.78 829.997C1413.94 829.997 1386.41 825.471 1357.82 816.24L1346.95 816.138L1452.14 878.864C1455.5 877.944 1458.73 876.947 1461.83 875.847C1501.31 860.606 1520.59 830.355 1529.08 797.88Z" fill="#2D899E"/>
<path d="M1774.43 487.391L1690.9 622.536C1690.95 623.866 1691 625.17 1691.05 626.474L1773.35 646.906C1773.56 645.167 1773.79 643.428 1773.97 641.689C1780.55 578.119 1779.45 527.539 1774.45 487.391H1774.43Z" fill="#3AAACC"/>
<path d="M1603.25 842.706C1581.86 863.624 1557.28 881.319 1530.31 894.974C1531.33 894.974 1532.36 895 1533.38 895C1534.77 895 1536.15 895 1537.56 895C1552.82 894.872 1571.53 891.292 1591.71 884.081C1602.86 879.913 1614.4 874.671 1626.04 868.252L1603.27 842.732L1603.25 842.706Z" fill="#5564A0"/>
<path d="M1629.78 866.104C1693.28 829.895 1758.33 760.085 1772.81 651.151L1691.11 630.873C1691.11 632.023 1691.13 633.149 1691.13 634.299C1691.13 714.312 1658.67 786.884 1606.25 839.689L1629.78 866.079V866.104Z" fill="#2D899E"/>
<path d="M1523.26 893.721C1551.92 879.913 1577.99 861.553 1600.45 839.536L1574.66 810.589L1523.28 893.721H1523.26Z" fill="#2D899E"/>
<path d="M1546.74 779.289C1540.77 819.539 1521.03 866.616 1464.42 886.178L1472.47 890.985C1487.31 892.954 1502.39 894.207 1517.67 894.719L1571.71 807.316L1546.74 779.289Z" fill="#5564A0"/>
<path d="M1543.69 698.1L1544.2 697.998C1544.41 698.867 1549.05 719.426 1549.05 747.299C1549.05 755.329 1548.64 764.304 1547.48 773.766L1574.02 803.556L1682.13 628.674L1682.29 628.443L1467.16 552.957C1467.16 552.957 1467.34 553.187 1467.44 553.289C1508.64 603.69 1534.33 652.711 1543.72 698.1H1543.69Z" fill="#2D899E"/>
<path d="M1686.59 621.411C1680.03 473.813 1561.53 354.778 1413.91 346.851C1408.71 358.307 1405.22 370.325 1403.56 382.958C1394.99 447.807 1434.35 511.096 1462.16 546.692L1684.57 624.736L1686.62 621.411H1686.59Z" fill="#3AAACC"/>
<path d="M1457.11 888.684C1458.57 888.94 1460.06 889.144 1461.52 889.374L1459.24 888.019C1458.55 888.249 1457.83 888.454 1457.11 888.684Z" fill="#5D5D5D"/>
<path d="M1686.85 629.799L1686.46 629.696L1576.97 806.804L1603.43 836.518C1654.98 784.48 1686.9 713.034 1686.9 634.274C1686.9 632.765 1686.87 631.282 1686.85 629.773V629.799Z" fill="#3AAACC"/>
<path d="M1738.05 177.824C1710.49 137.242 1670.85 105.636 1624.32 87.9146L1632.11 160.128C1657.24 165.345 1683.47 174.141 1708.87 185.828L1738.05 177.849V177.824Z" fill="#27C46A"/>
<path d="M1862.54 318.288C1862.39 317.878 1862.26 317.444 1862.11 317.035C1861.62 315.603 1861.11 314.196 1860.62 312.79C1859.95 310.846 1859.26 308.928 1858.57 307.011C1858.03 305.553 1857.52 304.095 1856.98 302.663C1856.29 300.822 1855.62 298.981 1854.93 297.14C1854.39 295.682 1853.83 294.25 1853.29 292.793C1852.59 290.977 1851.9 289.187 1851.18 287.397C1850.65 285.965 1850.08 284.559 1849.52 283.152C1848.8 281.337 1848.08 279.547 1847.34 277.757C1846.78 276.402 1846.24 275.021 1845.67 273.665C1844.9 271.799 1844.11 269.932 1843.31 268.091C1842.8 266.838 1842.26 265.61 1841.72 264.357C1840.75 262.107 1839.78 259.882 1838.8 257.658C1838.44 256.839 1838.08 256.021 1837.73 255.228C1836.39 252.262 1835.06 249.347 1833.7 246.432C1833.16 245.307 1832.65 244.182 1832.11 243.056C1831.26 241.241 1830.39 239.425 1829.52 237.635C1828.91 236.357 1828.29 235.104 1827.68 233.851C1827.24 232.956 1826.8 232.086 1826.37 231.191C1826.06 230.578 1825.73 229.938 1825.42 229.325C1824.62 227.765 1823.83 226.23 1823.04 224.696C1822.37 223.418 1821.68 222.113 1821.01 220.835C1820.21 219.326 1819.39 217.843 1818.6 216.334C1817.91 215.056 1817.22 213.803 1816.52 212.524C1815.7 211.041 1814.88 209.583 1814.06 208.1C1813.37 206.873 1812.68 205.62 1811.96 204.392C1811.11 202.909 1810.24 201.426 1809.37 199.969C1808.68 198.792 1808.01 197.616 1807.32 196.465C1806.37 194.88 1805.42 193.294 1804.45 191.735C1803.83 190.712 1803.22 189.689 1802.6 188.692C1801.06 186.211 1799.5 183.731 1797.94 181.276C1797.37 180.406 1796.81 179.537 1796.24 178.668C1795.19 177.057 1794.14 175.42 1793.06 173.835C1792.35 172.761 1791.63 171.712 1790.91 170.664C1790.35 169.82 1789.78 169.002 1789.22 168.183L1744.69 180.381C1752.22 192.016 1758.71 204.239 1764.15 216.922C1796.14 238.684 1833.83 271.569 1862.59 318.288H1862.54Z" fill="#1AAD71"/>
<path d="M1714.77 188.589C1729.51 195.673 1743.92 203.728 1757.61 212.626C1752.66 201.81 1746.94 191.428 1740.51 181.557L1714.77 188.589Z" fill="#52CC52"/>
<path d="M1932.56 665.778C1936.38 658.669 1939.53 652.915 1942.58 648.773C1964.25 594.638 1976.01 538.943 1978.12 483.581L1934.92 409.092L1932.56 665.778Z" fill="#7FD0EA"/>
<path d="M1803.78 805.858C1798.78 810.896 1796.27 814.91 1795.12 817.774C1796.99 817.212 1799.78 815.984 1803.55 813.223C1869.72 764.969 1901.97 719.35 1920.41 687.795L1888.1 679.765C1870.36 725.231 1842.55 766.81 1803.78 805.858Z" fill="#7FD0EA"/>
<path d="M1838.57 231.319C1841.49 237.277 1844.39 243.287 1847.21 249.475L1880.77 307.317L1921.69 241.087C1914.07 227.177 1905.77 213.496 1896.69 200.122C1811.73 74.822 1679.82 0 1543.87 0C1612.42 7.10886 1673.39 33.1917 1725.48 77.8139C1769.76 115.711 1807.55 167.058 1838.57 231.294V231.319Z" fill="#00F5DA"/>
<path d="M1924.02 245.409L1883.18 311.46L1930.81 393.57L1932.02 261.11C1931.28 259.55 1930.46 257.99 1929.69 256.43C1927.84 252.748 1925.94 249.066 1924 245.409H1924.02Z" fill="#40BDED"/>
<path d="M1978.37 475.577C1979.86 405.128 1965.66 335.369 1936.17 270.188L1934.97 400.781L1978.37 475.577Z" fill="#00F5DA"/>
<path d="M1880.64 315.551L1876.08 322.942C1884.9 349.024 1892.9 376.642 1900.02 405.767L1902.38 415.459L1902.18 415.382C1904.77 427.094 1906.69 439.01 1907.92 450.927C1913.25 502.862 1917.41 570.78 1901.87 635.757C1898.59 649.438 1894.46 662.76 1889.59 675.776L1922.58 683.959C1924.64 680.353 1926.51 676.952 1928.23 673.782L1930.71 401.881L1880.62 315.551H1880.64Z" fill="#A4F4E7"/>
<path d="M1874.31 317.751L1878.23 311.409L1860.8 281.362C1865.49 293.125 1869.98 305.272 1874.28 317.751H1874.31Z" fill="#5D5D5D"/>
<path d="M1309.8 305.118C1301.03 297.345 1292.52 291.847 1283.8 288.343C1275.73 285.096 1267.37 283.536 1258.27 283.536C1244.02 283.536 1227.84 287.346 1207.4 295.478C1204.25 296.756 1201.07 297.83 1197.89 298.777C1189.95 301.129 1181.95 302.484 1173.67 302.868C1172 302.945 1170.36 302.996 1168.67 302.996C1154.34 302.996 1141.16 300.132 1129.54 297.626L1125.78 296.808C1124.93 296.629 1124.06 296.373 1123.21 296.066C1122.93 295.964 1122.65 295.836 1122.37 295.734C1121.78 295.503 1121.19 295.299 1120.62 295.018C1120.29 294.864 1119.96 294.711 1119.62 294.532C1119.08 294.25 1118.57 293.969 1118.03 293.688C1117.7 293.483 1117.37 293.279 1117.03 293.074C1116.52 292.767 1116.01 292.435 1115.52 292.077C1115.21 291.847 1114.88 291.617 1114.57 291.386C1114.06 291.003 1113.6 290.619 1113.11 290.21C1112.83 289.98 1112.55 289.75 1112.26 289.494C1111.73 289.008 1111.21 288.497 1110.7 287.985C1110.52 287.781 1110.29 287.602 1110.11 287.397C1109.44 286.707 1108.83 285.991 1108.24 285.224C1100.91 302.254 1094.99 318.364 1090.45 333.605C1102.83 372.78 1154.41 402.264 1215.99 402.264C1271.37 402.264 1318.65 378.457 1336.64 345.189C1330.67 329.411 1321.59 315.628 1309.75 305.144L1309.8 305.118Z" fill="#F805D1"/>
<path d="M1304.13 495.779L1302.49 495.216L1298.26 493.733C1298.26 493.733 1298.26 493.733 1298.32 493.682L1080.5 417.249C1082.29 431.978 1086.42 445.147 1092.96 456.629C1118.9 502.121 1165.67 530.403 1215.04 530.403C1232.12 530.403 1249.32 527.129 1266.14 520.634C1269.45 519.356 1272.65 517.924 1275.81 516.338C1275.88 516.262 1275.96 516.21 1276.01 516.134C1281.65 513.27 1287.01 509.92 1292.09 506.135C1296.32 502.99 1300.34 499.512 1304.13 495.779Z" fill="#8F239B"/>
<path d="M1341.72 351.454C1321.72 384.364 1274.34 407.557 1219.22 407.557C1158.72 407.557 1107.57 379.608 1091.7 341.532C1084.27 368.612 1081.42 392.675 1083.22 413.669L1304.62 491.381L1308.98 492.889L1310.77 493.529C1316.72 487.187 1322.06 480.129 1326.72 472.458C1330.23 466.679 1333.36 460.567 1336.08 454.149C1340.36 443.997 1343.62 433.103 1345.72 421.596C1350.23 396.817 1348.62 372.55 1341.72 351.479V351.454Z" fill="#DA26DD"/>
<path d="M1577.79 237.277C1561.64 226.128 1545.2 215.542 1528.54 205.697C1518.85 199.969 1509.03 194.778 1499.11 190.047C1487.95 198.025 1478.9 207.18 1469.65 216.539C1461.27 225.029 1452.6 233.8 1442.27 241.522C1429.5 251.06 1415.84 257.709 1400.02 262.056C1411.32 263.923 1423.09 266.582 1435.35 269.983C1436.99 269.472 1438.63 268.935 1440.27 268.449C1455.68 263.897 1471.85 260.471 1489.72 257.99C1489.9 257.965 1490.08 257.939 1490.29 257.913C1516.67 244.105 1543.38 237.073 1570.05 237.073C1572.63 237.073 1575.2 237.124 1577.76 237.277H1577.79Z" fill="#9948C9"/>
<path d="M1300.24 269.421C1305.54 267.4 1309.08 265.457 1315.13 264.639C1316.39 264.281 1317.67 263.923 1318.95 263.59C1315.67 260.624 1312.11 257.837 1308.31 255.177C1306.65 254.41 1305.01 253.643 1303.37 252.799C1302.72 255.382 1300.93 262.67 1300.24 269.395V269.421Z" fill="#B127BB"/>
<path d="M1272.78 237.635L1253.14 273.128C1254.89 273.026 1256.58 272.949 1258.27 272.949C1259.53 272.949 1260.76 272.975 1262.01 273.026C1262.4 273.026 1262.81 273.077 1263.19 273.103C1264.01 273.154 1264.83 273.205 1265.68 273.282C1266.17 273.333 1266.63 273.384 1267.09 273.435C1267.83 273.512 1268.55 273.589 1269.29 273.691C1269.78 273.768 1270.27 273.844 1270.78 273.921C1271.47 274.023 1272.16 274.151 1272.86 274.254C1273.34 274.356 1273.86 274.458 1274.34 274.535C1275.04 274.663 1275.7 274.816 1276.37 274.97C1276.86 275.072 1277.37 275.2 1277.86 275.328C1278.52 275.481 1279.19 275.66 1279.86 275.865C1280.34 276.018 1280.83 276.146 1281.32 276.299C1281.98 276.504 1282.65 276.708 1283.32 276.939C1283.8 277.092 1284.27 277.245 1284.73 277.424C1284.91 277.476 1285.09 277.527 1285.24 277.603C1293.06 272.924 1293.24 272.489 1294.57 271.696C1294.57 271.696 1297.39 256.788 1299.42 250.779C1295.16 248.452 1291.03 245.92 1287.06 243.235C1282.5 241.19 1277.73 239.297 1272.78 237.661V237.635Z" fill="#793EA3"/>
<path d="M1113.57 271.748L1114.11 271.952C1113.78 273.256 1114.26 275.072 1115.49 277.092C1118.16 281.414 1123.67 285.531 1128.03 286.477L1131.83 287.295C1142 289.494 1152.49 291.77 1163.8 292.307C1165.41 292.384 1167.03 292.409 1168.69 292.409C1180.72 292.409 1192.1 290.185 1203.48 285.658C1220.63 278.831 1235.07 274.893 1248.09 273.538L1268.68 236.306C1252.6 231.421 1234.81 228.66 1216.07 228.66C1178.9 228.66 1145.39 239.4 1121.93 256.507C1119.16 260.598 1116.78 264.664 1114.93 268.653C1114.44 269.676 1114.01 270.699 1113.6 271.748H1113.57Z" fill="#B127BB"/>
<path d="M1461.63 275.711C1467.65 271.364 1473.7 267.426 1479.78 263.82C1466.73 265.994 1454.52 268.756 1442.81 272.131C1448.22 273.742 1453.73 275.532 1459.32 277.424C1460.09 276.862 1460.83 276.274 1461.6 275.711H1461.63Z" fill="#8F239B"/>
<path d="M1788.12 482.149C1797.42 491.048 1806.47 500.075 1815.19 509.255C1817.91 512.119 1820.75 515.213 1823.57 518.307C1830.98 526.388 1843.19 539.711 1847.83 541.066C1848.49 540.324 1848.65 539.327 1847.54 535.824C1845.47 529.354 1839.6 518.256 1828.47 499.819C1818.63 483.505 1807.96 467.369 1796.63 451.489L1786.14 468.443C1786.86 472.867 1787.5 477.444 1788.12 482.149Z" fill="#5564A0"/>
<path d="M1243.68 174.627C1243.55 174.678 1243.43 174.704 1243.3 174.755C1243.94 176.289 1244.6 177.798 1245.32 179.332C1246.01 180.816 1246.76 182.273 1247.55 183.756C1247.53 183.705 1247.48 183.628 1247.45 183.577C1246.04 180.585 1244.81 177.594 1243.68 174.627Z" fill="#5D5D5D"/>
<path d="M1235.73 183.859C1234.89 182.043 1234.09 180.227 1233.35 178.412C1219.28 183.807 1206.99 189.587 1196.74 195.033C1168.51 210.069 1144.95 228.327 1129.52 246.534C1152.75 232.777 1183 224.415 1216.04 224.415C1235.53 224.415 1254.04 227.33 1270.73 232.547L1271.55 231.063C1255.83 217.05 1243.6 200.403 1235.73 183.833V183.859Z" fill="#793EA3"/>
<path d="M1793.94 447.756C1788.35 440.033 1782.58 432.387 1776.66 424.793C1779.76 435.942 1782.63 448.318 1785.07 462.127L1793.94 447.756Z" fill="#8F239B"/>
<path d="M1771.32 466.525C1765.86 434.842 1757.99 410.703 1750.22 392.394C1742.64 374.519 1735.15 362.219 1730.1 353.934C1709.82 320.64 1662.26 267.682 1599.76 252.953C1595.07 251.853 1590.3 250.958 1585.43 250.319C1579.51 250.293 1550.59 245.128 1512.72 259.218C1498.9 264.741 1485.13 272.31 1471.44 281.797C1470.24 282.641 1469.01 283.459 1467.78 284.354C1444.04 301.436 1426.68 320.998 1415.81 342.785C1562.76 351.53 1680.88 468.827 1690.44 615.172L1773.48 480.82C1772.81 475.91 1772.07 471.154 1771.27 466.576L1771.32 466.525Z" fill="#7FD0EA"/>
<path d="M1610.96 28.6656C1609.58 28.2309 1608.19 27.7706 1606.81 27.3614C1605.76 27.029 1604.71 26.7221 1603.63 26.3897C1602.22 25.9806 1600.78 25.5714 1599.35 25.1623C1598.32 24.881 1597.27 24.5741 1596.25 24.2929C1594.73 23.8837 1593.2 23.5001 1591.68 23.1166C1590.71 22.8609 1589.76 22.6051 1588.81 22.375C1586.99 21.9403 1585.17 21.5311 1583.38 21.0964C1582.68 20.943 1581.99 20.7896 1581.3 20.6106C1578.79 20.0736 1576.28 19.5366 1573.74 19.0507C1573.1 18.9229 1572.43 18.8206 1571.79 18.6927C1569.89 18.3347 1567.99 17.9767 1566.07 17.6699C1565.12 17.5164 1564.15 17.363 1563.2 17.2096C1561.59 16.9539 1559.94 16.6981 1558.33 16.468C1557.28 16.3146 1556.2 16.1611 1555.15 16.0333C1553.59 15.8287 1552.05 15.6241 1550.51 15.4196C1549.41 15.2917 1548.31 15.1639 1547.18 15.036C1545.64 14.857 1544.1 14.7036 1542.56 14.5501C1541.43 14.4479 1540.33 14.3456 1539.2 14.2433C1537.64 14.1154 1536.08 13.9876 1534.51 13.8597C1533.41 13.783 1532.31 13.7063 1531.2 13.6296C1529.56 13.5273 1527.92 13.425 1526.28 13.3483C1525.23 13.2971 1524.18 13.2204 1523.1 13.1949C1521.31 13.1181 1519.49 13.067 1517.67 13.0159C1516.77 12.9903 1515.87 12.9391 1514.98 12.9391C1512.26 12.888 1509.52 12.8369 1506.77 12.8369C1504.03 12.8369 1501.44 12.8624 1498.8 12.9136C1497.67 12.9136 1496.54 12.9903 1495.42 13.0159C1493.9 13.067 1492.39 13.0926 1490.88 13.1437C1489.9 13.1949 1488.95 13.246 1488.01 13.2971C1486.34 13.3739 1484.67 13.4506 1483.01 13.5529C1482.06 13.604 1481.14 13.6807 1480.19 13.7574C1478.52 13.8597 1476.85 13.962 1475.19 14.0899C1474.01 14.1921 1472.83 14.2944 1471.65 14.3967C1470.24 14.5246 1468.83 14.6269 1467.42 14.7547C1466.19 14.8826 1464.96 15.0104 1463.75 15.1383C1462.42 15.2661 1461.06 15.394 1459.73 15.5474C1458.55 15.6753 1457.37 15.8287 1456.19 15.9821C1454.81 16.1356 1453.45 16.3146 1452.09 16.4936C1450.96 16.647 1449.83 16.8004 1448.7 16.9539C1447.32 17.1584 1445.91 17.3374 1444.55 17.542C1443.45 17.6954 1442.37 17.8744 1441.27 18.0534C1439.88 18.2836 1438.47 18.4881 1437.09 18.7183C1435.96 18.9229 1434.83 19.1019 1433.71 19.3064C1432.37 19.5366 1431.04 19.7411 1429.73 19.9969C1428.6 20.2014 1427.5 20.406 1426.4 20.6361C1425.07 20.8919 1423.73 21.122 1422.4 21.3777C1421.35 21.5823 1420.32 21.8124 1419.27 22.017C1417.91 22.2983 1416.55 22.5796 1415.17 22.8609C1414.2 23.0654 1413.22 23.2956 1412.25 23.5001C1410.86 23.807 1409.45 24.1139 1408.04 24.4207C1407.09 24.6253 1406.17 24.8554 1405.22 25.0856C1403.81 25.418 1402.4 25.7249 1401.02 26.0829C1400.04 26.313 1399.1 26.5687 1398.15 26.7989C1396.79 27.1313 1395.43 27.4637 1394.1 27.8217C1393.12 28.0774 1392.17 28.3331 1391.2 28.5889C1390.15 28.8701 1389.1 29.1514 1388.05 29.4327L1316.75 158.338L1280.11 224.568C1286.96 230.501 1294.47 235.896 1302.6 240.474C1312.18 209.788 1327.82 181.148 1348.44 156.395C1359 143.711 1370.84 132.025 1383.84 121.643C1427.89 86.4314 1481.08 67.8154 1537.67 67.8154C1565.89 67.8154 1593.48 72.5717 1619.45 81.6751L1613.65 29.5606C1612.78 29.2793 1611.91 28.998 1611.04 28.6911L1610.96 28.6656Z" fill="#29E57E"/>
<path d="M1785.76 163.299C1784.84 161.995 1783.94 160.716 1783.02 159.463C1782.22 158.364 1781.43 157.264 1780.63 156.19C1779.73 154.937 1778.81 153.71 1777.89 152.482C1777.07 151.408 1776.27 150.334 1775.45 149.26C1774.53 148.059 1773.58 146.857 1772.66 145.655C1771.84 144.606 1771.02 143.584 1770.2 142.535C1769.25 141.333 1768.27 140.157 1767.3 138.981C1766.48 137.983 1765.68 136.986 1764.86 135.989C1763.84 134.761 1762.81 133.534 1761.76 132.332C1760.99 131.437 1760.22 130.517 1759.45 129.622C1758.17 128.164 1756.89 126.706 1755.61 125.249C1754.84 124.405 1754.1 123.536 1753.33 122.692C1751.74 120.953 1750.15 119.214 1748.56 117.526C1747.79 116.708 1747.02 115.915 1746.25 115.123C1745.15 113.946 1744.02 112.796 1742.92 111.645C1742.07 110.775 1741.23 109.932 1740.35 109.088C1739.3 108.039 1738.25 106.965 1737.18 105.942C1736.3 105.073 1735.41 104.229 1734.51 103.385C1733.46 102.388 1732.41 101.391 1731.36 100.393C1730.46 99.5496 1729.54 98.7057 1728.64 97.8874C1727.59 96.9157 1726.51 95.9696 1725.43 94.9979C1724.51 94.1796 1723.61 93.3613 1722.69 92.543C1721.59 91.5969 1720.51 90.6507 1719.41 89.7301C1718.51 88.963 1717.59 88.1703 1716.69 87.4031C1715.54 86.457 1714.41 85.5109 1713.23 84.5647C1712.36 83.8487 1711.49 83.1327 1710.59 82.4167C1709.31 81.3939 1708 80.3966 1706.69 79.3737C1705.95 78.7856 1705.21 78.1974 1704.44 77.6349C1702.41 76.1006 1700.39 74.5919 1698.33 73.1087C1697.64 72.5973 1696.95 72.137 1696.26 71.6256C1694.85 70.6283 1693.44 69.6054 1692.03 68.6337C1691.13 68.02 1690.23 67.4319 1689.36 66.8437C1688.11 65.9999 1686.88 65.156 1685.62 64.3633C1684.67 63.7496 1683.72 63.1359 1682.77 62.5221C1681.57 61.755 1680.36 60.9879 1679.13 60.2207C1678.16 59.607 1677.16 59.0189 1676.18 58.4051C1674.98 57.6891 1673.77 56.9731 1672.57 56.2571C1671.57 55.669 1670.57 55.1064 1669.57 54.5183C1668.34 53.8023 1667.11 53.1374 1665.88 52.4214C1664.88 51.8844 1663.9 51.3219 1662.9 50.7849C1661.62 50.0944 1660.34 49.4296 1659.06 48.7391C1658.08 48.2277 1657.14 47.7419 1656.16 47.2304C1654.78 46.5144 1653.37 45.824 1651.96 45.1336C1651.09 44.6989 1650.24 44.2641 1649.37 43.855C1647.44 42.9344 1645.52 42.0394 1643.6 41.17C1643.14 40.9654 1642.68 40.7353 1642.19 40.5307C1640.01 39.559 1637.81 38.6129 1635.6 37.6667C1634.75 37.3087 1633.91 36.9763 1633.06 36.6439C1631.55 36.0301 1630.06 35.4164 1628.55 34.8283C1627.58 34.4447 1626.6 34.0867 1625.63 33.7031C1624.24 33.1661 1622.83 32.6547 1621.42 32.1433C1620.4 31.7853 1619.37 31.4273 1618.35 31.0693L1623.88 83.1839C1654.93 94.7421 1683.54 112.591 1708.05 136.04C1721.02 148.442 1732.46 162.046 1742.28 176.622L1786.71 164.475C1786.42 164.066 1786.14 163.657 1785.86 163.274L1785.76 163.299Z" fill="#52CC52"/>
<path d="M1380.46 31.4529C1379.61 31.683 1378.77 31.9387 1377.89 32.1944C1376.53 32.578 1375.18 32.9871 1373.82 33.3707C1373.02 33.6009 1372.23 33.8566 1371.43 34.1123C1370.05 34.5214 1368.66 34.9561 1367.31 35.3909C1366.48 35.6466 1365.69 35.9023 1364.9 36.158C1363.56 36.5927 1362.23 37.0019 1360.9 37.4366C1360.18 37.6667 1359.46 37.8969 1358.74 38.1526C1357.36 38.6129 1355.97 39.0731 1354.61 39.5334C1353.95 39.7636 1353.31 39.9937 1352.64 40.1983C1351.23 40.6841 1349.82 41.17 1348.46 41.6559C1347.85 41.8604 1347.26 42.0906 1346.64 42.3207C1345.23 42.8066 1343.8 43.318 1342.41 43.8294C1341.85 44.034 1341.28 44.2386 1340.72 44.4687C1339.31 44.9801 1337.9 45.4916 1336.51 46.0286C1335.95 46.2331 1335.41 46.4633 1334.87 46.6679C1333.49 47.2049 1332.11 47.7163 1330.75 48.2533C1330.26 48.4323 1329.8 48.6369 1329.34 48.8159C1327.93 49.3784 1326.49 49.9154 1325.11 50.5036C1324.77 50.6314 1324.41 50.7849 1324.06 50.9383C1322.57 51.552 1321.08 52.1401 1319.59 52.7539C1319.31 52.8561 1319.03 52.984 1318.72 53.1119C1317.21 53.7511 1315.7 54.3649 1314.21 55.0041C1314.01 55.0809 1313.83 55.1831 1313.62 55.2599C1312.06 55.9247 1310.52 56.5896 1308.98 57.2544C1308.9 57.28 1308.85 57.3056 1308.78 57.3311C1303.83 59.4791 1299.08 61.6271 1294.57 63.7496C1293.8 64.2354 1293.06 64.7213 1292.32 65.2071C1291.75 65.5651 1291.14 65.9487 1290.57 66.3323C1289.68 66.9204 1288.8 67.5086 1287.93 68.0711C1287.47 68.378 1287.01 68.6849 1286.55 68.9917C1285.6 69.631 1284.68 70.2703 1283.73 70.9096C1283.39 71.1397 1283.04 71.3699 1282.7 71.6256C1281.7 72.2904 1280.75 72.9809 1279.8 73.6457C1279.52 73.8247 1279.27 74.0293 1278.98 74.2083C1277.96 74.9243 1276.96 75.6403 1275.96 76.3563C1275.78 76.4841 1275.57 76.612 1275.4 76.7399C1274.4 77.4559 1273.42 78.1463 1272.45 78.8623C1272.29 78.9902 1272.11 79.0924 1271.96 79.2203C1270.91 79.9619 1269.91 80.729 1268.88 81.445C1268.81 81.4961 1268.73 81.5473 1268.65 81.624C1267.58 82.4167 1266.52 83.1839 1265.5 83.9254C1260.5 87.5821 1256.04 91.8014 1252.24 96.3787C1235.32 116.887 1232.38 145.041 1243.66 174.678C1244.78 177.645 1246.01 180.611 1247.42 183.628C1247.42 183.68 1247.5 183.756 1247.53 183.807C1254.48 197.105 1264.4 210.248 1276.75 221.653L1311.44 158.926L1382.2 30.9926C1381.61 31.146 1381 31.325 1380.41 31.504L1380.46 31.4529Z" fill="#5CEA5C"/>
<path d="M1619.86 86.2524C1594.17 77.0467 1566.46 72.0091 1537.59 72.0091C1464.57 72.0091 1398.25 104.05 1353.51 156.318C1332.44 180.943 1316.18 210.069 1306.26 242.468C1323.03 251.239 1342.23 256.686 1363.2 256.686C1370.41 256.686 1377.69 256.021 1384.87 254.691C1404.84 251.035 1421.04 244.156 1435.89 233.058C1445.58 225.821 1453.57 217.715 1462.06 209.123C1470.16 200.915 1478.37 192.63 1488.13 185.035C1504.8 172.07 1526.03 161.126 1559.1 156.216C1566.28 155.142 1574.12 154.605 1582.35 154.605C1596.68 154.605 1611.96 156.216 1627.76 159.233L1619.86 86.2524Z" fill="#22F4A8"/>
</g>
<path d="M428.55 1281.8C404.817 1290.6 382.683 1295 362.15 1295C338.95 1295 320.15 1288.87 305.75 1276.6C291.35 1264.33 284.15 1244.73 284.15 1217.8V1089.4C284.15 1069.13 286.95 1053.8 292.55 1043.4C298.417 1033 307.217 1024.2 318.95 1017C330.683 1010.33 345.083 1007 362.15 1007C382.95 1007 401.75 1011.4 418.55 1020.2L410.15 1043C395.75 1037.67 381.75 1035 368.15 1035C353.483 1035 340.55 1038.73 329.35 1046.2C318.417 1053.67 312.95 1066.87 312.95 1085.8V1217C312.95 1233.8 317.617 1246.33 326.95 1254.6C336.283 1262.87 349.483 1267 366.55 1267C383.083 1267 401.883 1263.4 422.95 1256.2L428.55 1281.8ZM599.988 1291C571.188 1293.93 550.388 1295.4 537.588 1295.4C509.588 1295.4 487.321 1290.2 470.788 1279.8C454.254 1269.4 445.988 1250.6 445.988 1223.4V1190.2C445.988 1163.8 455.188 1146.07 473.588 1137C482.388 1132.73 493.188 1130.6 505.988 1130.6C517.721 1130.6 529.588 1132.47 541.588 1136.2C553.588 1139.67 563.454 1144.2 571.188 1149.8C571.188 1122.33 552.388 1108.6 514.788 1108.6L516.788 1087.4C542.388 1087.4 561.188 1091.53 573.188 1099.8C585.454 1107.8 592.921 1117.4 595.588 1128.6C598.521 1139.8 599.988 1154.2 599.988 1171.8V1291ZM571.188 1175.8C561.854 1171.27 551.588 1167.27 540.388 1163.8C529.188 1160.07 518.921 1158.2 509.588 1158.2C486.388 1158.2 474.788 1169.67 474.788 1192.6V1223.8C474.788 1254.2 495.588 1269.4 537.188 1269.4C545.454 1269.4 556.788 1268.47 571.188 1266.6V1175.8ZM638.791 1090.6H666.791V1101C679.324 1091.67 694.124 1087 711.191 1087C719.724 1087 730.124 1088.33 742.391 1091L735.191 1118.2C727.191 1115.27 718.791 1113.8 709.991 1113.8C698.257 1113.8 688.257 1116.33 679.991 1121.4C671.724 1126.2 667.591 1133.27 667.591 1142.6V1291H638.791V1090.6ZM764.181 1090.6H792.181V1101C804.715 1091.67 819.515 1087 836.581 1087C845.115 1087 855.515 1088.33 867.781 1091L860.581 1118.2C852.581 1115.27 844.181 1113.8 835.381 1113.8C823.648 1113.8 813.648 1116.33 805.381 1121.4C797.115 1126.2 792.981 1133.27 792.981 1142.6V1291H764.181V1090.6ZM1039.32 1217.4C1039.32 1239.8 1033.19 1258.33 1020.92 1273C1008.66 1287.67 990.122 1295 965.322 1295C940.522 1295 921.722 1287.67 908.922 1273C896.389 1258.07 890.122 1239.53 890.122 1217.4V1164.6C890.122 1139.27 896.522 1119.93 909.322 1106.6C922.389 1093 941.055 1086.2 965.322 1086.2C988.522 1086.2 1006.66 1093.27 1019.72 1107.4C1032.79 1121.27 1039.32 1140.33 1039.32 1164.6V1217.4ZM1010.52 1164.6C1010.52 1130.73 995.455 1113.8 965.322 1113.8C951.189 1113.8 939.855 1117.8 931.322 1125.8C923.055 1133.8 918.922 1146.73 918.922 1164.6V1221.4C918.922 1235.8 923.055 1247.27 931.322 1255.8C939.855 1264.07 951.189 1268.2 965.322 1268.2C979.455 1268.2 990.522 1264.07 998.522 1255.8C1006.52 1247.27 1010.52 1235.8 1010.52 1221.4V1164.6ZM1095.85 1239C1096.92 1248.87 1101.85 1256.6 1110.65 1262.2C1119.45 1267.53 1129.85 1270.2 1141.85 1270.2C1152.79 1270.2 1162.39 1267.67 1170.65 1262.6C1179.19 1257.27 1183.45 1249.4 1183.45 1239C1183.45 1231.8 1181.32 1225.8 1177.05 1221C1173.05 1216.2 1167.85 1212.47 1161.45 1209.8C1155.32 1206.87 1146.79 1203.53 1135.85 1199.8C1122.79 1195.27 1112.25 1191.27 1104.25 1187.8C1096.52 1184.07 1089.59 1178.73 1083.45 1171.8C1077.59 1164.87 1073.99 1155.93 1072.65 1145L1072.25 1140.2C1072.25 1131.4 1074.65 1122.87 1079.45 1114.6C1084.52 1106.07 1092.12 1099.13 1102.25 1093.8C1112.65 1088.47 1125.59 1085.8 1141.05 1085.8C1149.59 1085.8 1157.05 1086.73 1163.45 1088.6C1170.12 1090.2 1175.32 1091.93 1179.05 1093.8C1182.79 1095.67 1185.05 1096.87 1185.85 1097.4L1176.65 1122.6C1175.85 1122.07 1173.99 1121 1171.05 1119.4C1168.39 1117.8 1164.39 1116.33 1159.05 1115C1153.72 1113.4 1147.72 1112.6 1141.05 1112.6C1128.52 1112.6 1118.65 1115.4 1111.45 1121C1104.25 1126.6 1101.19 1134.2 1102.25 1143.8C1103.05 1151 1106.92 1156.73 1113.85 1161C1121.05 1165 1131.85 1169.53 1146.25 1174.6C1160.39 1179.4 1171.85 1184.07 1180.65 1188.6C1189.72 1192.87 1197.32 1199.13 1203.45 1207.4C1209.85 1215.4 1213.05 1225.93 1213.05 1239C1213.05 1255.53 1207.05 1269.4 1195.05 1280.6C1183.05 1291.53 1165.32 1297 1141.85 1297C1126.65 1297 1113.45 1294.47 1102.25 1289.4C1091.32 1284.07 1082.92 1277.13 1077.05 1268.6C1071.45 1260.07 1068.39 1250.6 1067.85 1240.2L1095.85 1239ZM1268.12 1239C1269.19 1248.87 1274.12 1256.6 1282.92 1262.2C1291.72 1267.53 1302.12 1270.2 1314.12 1270.2C1325.05 1270.2 1334.65 1267.67 1342.92 1262.6C1351.45 1257.27 1355.72 1249.4 1355.72 1239C1355.72 1231.8 1353.59 1225.8 1349.32 1221C1345.32 1216.2 1340.12 1212.47 1333.72 1209.8C1327.59 1206.87 1319.05 1203.53 1308.12 1199.8C1295.05 1195.27 1284.52 1191.27 1276.52 1187.8C1268.79 1184.07 1261.85 1178.73 1255.72 1171.8C1249.85 1164.87 1246.25 1155.93 1244.92 1145L1244.52 1140.2C1244.52 1131.4 1246.92 1122.87 1251.72 1114.6C1256.79 1106.07 1264.39 1099.13 1274.52 1093.8C1284.92 1088.47 1297.85 1085.8 1313.32 1085.8C1321.85 1085.8 1329.32 1086.73 1335.72 1088.6C1342.39 1090.2 1347.59 1091.93 1351.32 1093.8C1355.05 1095.67 1357.32 1096.87 1358.12 1097.4L1348.92 1122.6C1348.12 1122.07 1346.25 1121 1343.32 1119.4C1340.65 1117.8 1336.65 1116.33 1331.32 1115C1325.99 1113.4 1319.99 1112.6 1313.32 1112.6C1300.79 1112.6 1290.92 1115.4 1283.72 1121C1276.52 1126.6 1273.45 1134.2 1274.52 1143.8C1275.32 1151 1279.19 1156.73 1286.12 1161C1293.32 1165 1304.12 1169.53 1318.52 1174.6C1332.65 1179.4 1344.12 1184.07 1352.92 1188.6C1361.99 1192.87 1369.59 1199.13 1375.72 1207.4C1382.12 1215.4 1385.32 1225.93 1385.32 1239C1385.32 1255.53 1379.32 1269.4 1367.32 1280.6C1355.32 1291.53 1337.59 1297 1314.12 1297C1298.92 1297 1285.72 1294.47 1274.52 1289.4C1263.59 1284.07 1255.19 1277.13 1249.32 1268.6C1243.72 1260.07 1240.65 1250.6 1240.12 1240.2L1268.12 1239ZM1545.98 1277C1536.38 1283.13 1525.45 1287.8 1513.18 1291C1500.92 1294.2 1488.65 1295.8 1476.38 1295.8C1456.65 1295.8 1440.92 1291 1429.18 1281.4C1417.72 1271.53 1411.98 1256.87 1411.98 1237.4V1155.4C1411.98 1133.8 1418.65 1117 1431.98 1105C1445.58 1093 1463.45 1087 1485.58 1087C1507.72 1087 1524.92 1093 1537.18 1105C1549.72 1116.73 1555.98 1133.13 1555.98 1154.2V1209L1440.78 1215V1235.8C1440.78 1247 1444.25 1255.4 1451.18 1261C1458.12 1266.6 1467.58 1269.4 1479.58 1269.4C1496.92 1269.4 1515.45 1264.07 1535.18 1253.4L1545.98 1277ZM1526.78 1152.6C1526.78 1138.47 1522.38 1128.47 1513.58 1122.6C1504.78 1116.47 1495.32 1113.4 1485.18 1113.4C1471.85 1113.4 1461.05 1117 1452.78 1124.2C1444.78 1131.4 1440.78 1141.93 1440.78 1155.8V1187.8L1526.78 1183.4V1152.6ZM1602.62 1011H1631.42V1291H1602.62V1011ZM1945.74 1281.8C1922 1290.6 1899.87 1295 1879.34 1295C1856.14 1295 1837.34 1288.87 1822.94 1276.6C1808.54 1264.33 1801.34 1244.73 1801.34 1217.8V1089.4C1801.34 1069.13 1804.14 1053.8 1809.74 1043.4C1815.6 1033 1824.4 1024.2 1836.14 1017C1847.87 1010.33 1862.27 1007 1879.34 1007C1900.14 1007 1918.94 1011.4 1935.74 1020.2L1927.34 1043C1912.94 1037.67 1898.94 1035 1885.34 1035C1870.67 1035 1857.74 1038.73 1846.54 1046.2C1835.6 1053.67 1830.14 1066.87 1830.14 1085.8V1217C1830.14 1233.8 1834.8 1246.33 1844.14 1254.6C1853.47 1262.87 1866.67 1267 1883.74 1267C1900.27 1267 1919.07 1263.4 1940.14 1256.2L1945.74 1281.8ZM2117.18 1291C2088.38 1293.93 2067.58 1295.4 2054.78 1295.4C2026.78 1295.4 2004.51 1290.2 1987.98 1279.8C1971.44 1269.4 1963.18 1250.6 1963.18 1223.4V1190.2C1963.18 1163.8 1972.38 1146.07 1990.78 1137C1999.58 1132.73 2010.38 1130.6 2023.18 1130.6C2034.91 1130.6 2046.78 1132.47 2058.78 1136.2C2070.78 1139.67 2080.64 1144.2 2088.38 1149.8C2088.38 1122.33 2069.58 1108.6 2031.98 1108.6L2033.98 1087.4C2059.58 1087.4 2078.38 1091.53 2090.38 1099.8C2102.64 1107.8 2110.11 1117.4 2112.78 1128.6C2115.71 1139.8 2117.18 1154.2 2117.18 1171.8V1291ZM2088.38 1175.8C2079.04 1171.27 2068.78 1167.27 2057.58 1163.8C2046.38 1160.07 2036.11 1158.2 2026.78 1158.2C2003.58 1158.2 1991.98 1169.67 1991.98 1192.6V1223.8C1991.98 1254.2 2012.78 1269.4 2054.38 1269.4C2062.64 1269.4 2073.98 1268.47 2088.38 1266.6V1175.8ZM2179.58 1039.8C2175.04 1039.8 2171.04 1038.2 2167.58 1035C2164.38 1031.53 2162.78 1027.67 2162.78 1023.4C2162.78 1019.13 2164.38 1015.4 2167.58 1012.2C2171.04 1008.73 2175.04 1007 2179.58 1007C2183.84 1007 2187.58 1008.6 2190.78 1011.8C2193.98 1015 2195.58 1018.87 2195.58 1023.4C2195.58 1027.93 2193.98 1031.8 2190.78 1035C2187.58 1038.2 2183.84 1039.8 2179.58 1039.8ZM2164.38 1090.6H2193.18V1291H2164.38V1090.6ZM2258.87 1090.6H2286.87L2286.47 1105.8C2292.07 1099.93 2299.14 1095.4 2307.67 1092.2C2316.21 1089 2324.87 1087.4 2333.67 1087.4C2358.47 1087.4 2377.27 1094.6 2390.07 1109C2403.14 1123.4 2409.67 1142.07 2409.67 1165V1220.6C2409.67 1244.87 2402.87 1263.53 2389.27 1276.6C2375.67 1289.4 2357.67 1295.8 2335.27 1295.8C2324.34 1295.8 2315.14 1294.47 2307.67 1291.8C2300.47 1289.4 2293.81 1285.13 2287.67 1279V1366.2L2258.87 1375V1090.6ZM2380.87 1163.4C2380.87 1146.6 2376.47 1134.33 2367.67 1126.6C2359.14 1118.6 2348.34 1114.6 2335.27 1114.6C2321.94 1114.6 2310.74 1118.47 2301.67 1126.2C2292.87 1133.93 2288.21 1145.67 2287.67 1161.4V1221.8C2287.67 1237 2291.81 1248.6 2300.07 1256.6C2308.34 1264.33 2320.07 1268.2 2335.27 1268.2C2349.14 1268.2 2360.21 1264.2 2368.47 1256.2C2376.74 1247.93 2380.87 1235.93 2380.87 1220.2V1163.4ZM2471.77 1039.8C2467.23 1039.8 2463.23 1038.2 2459.77 1035C2456.57 1031.53 2454.97 1027.67 2454.97 1023.4C2454.97 1019.13 2456.57 1015.4 2459.77 1012.2C2463.23 1008.73 2467.23 1007 2471.77 1007C2476.03 1007 2479.77 1008.6 2482.97 1011.8C2486.17 1015 2487.77 1018.87 2487.77 1023.4C2487.77 1027.93 2486.17 1031.8 2482.97 1035C2479.77 1038.2 2476.03 1039.8 2471.77 1039.8ZM2456.57 1090.6H2485.37V1291H2456.57V1090.6ZM2544.26 1090.6H2572.26V1101C2584.79 1091.67 2599.59 1087 2616.66 1087C2625.19 1087 2635.59 1088.33 2647.86 1091L2640.66 1118.2C2632.66 1115.27 2624.26 1113.8 2615.46 1113.8C2603.73 1113.8 2593.73 1116.33 2585.46 1121.4C2577.19 1126.2 2573.06 1133.27 2573.06 1142.6V1291H2544.26V1090.6ZM2787.1 1291C2758.3 1293.93 2737.5 1295.4 2724.7 1295.4C2696.7 1295.4 2674.43 1290.2 2657.9 1279.8C2641.36 1269.4 2633.1 1250.6 2633.1 1223.4V1190.2C2633.1 1163.8 2642.3 1146.07 2660.7 1137C2669.5 1132.73 2680.3 1130.6 2693.1 1130.6C2704.83 1130.6 2716.7 1132.47 2728.7 1136.2C2740.7 1139.67 2750.56 1144.2 2758.3 1149.8C2758.3 1122.33 2739.5 1108.6 2701.9 1108.6L2703.9 1087.4C2729.5 1087.4 2748.3 1091.53 2760.3 1099.8C2772.56 1107.8 2780.03 1117.4 2782.7 1128.6C2785.63 1139.8 2787.1 1154.2 2787.1 1171.8V1291ZM2758.3 1175.8C2748.96 1171.27 2738.7 1167.27 2727.5 1163.8C2716.3 1160.07 2706.03 1158.2 2696.7 1158.2C2673.5 1158.2 2661.9 1169.67 2661.9 1192.6V1223.8C2661.9 1254.2 2682.7 1269.4 2724.3 1269.4C2732.56 1269.4 2743.9 1268.47 2758.3 1266.6V1175.8Z" fill="white"/>
<defs>
<clipPath id="clip0_55_604">
<rect width="898" height="895" fill="white" transform="translate(1080.5)"/>
</clipPath>
</defs>
</svg>
