<svg width="1160" height="1156" viewBox="0 0 1160 1156" fill="none" xmlns="http://www.w3.org/2000/svg">
<g clip-path="url(#clip0_136_13)">
<path d="M44.2116 769.235C41.8603 764.479 39.807 760.714 38.0518 757.708C39.1447 761.243 40.6018 765.635 42.622 771.019C44.1785 775.214 45.8344 779.309 47.4571 783.471C48.2188 782.348 48.9474 781.258 49.7422 780.135C47.8876 776.535 45.9999 772.902 44.1785 769.235H44.2116Z" fill="#5D5D5D"/>
<path d="M334.882 1048.59L341.969 1048.66C335.048 1046.11 328.06 1043.34 321.072 1040.37L334.882 1048.59Z" fill="#5D5D5D"/>
<path d="M248.413 1047.8L324.02 1048.49L132.569 934.345C166.183 978.108 205.162 1016.12 248.413 1047.8Z" fill="#6B76D2"/>
<path d="M256.162 1053.35C315.078 1094.93 381.644 1124.89 453.475 1141.34L453.376 1140.54C460.099 1139.62 466.457 1138.46 472.551 1137.04L333.326 1054.07L256.129 1053.35H256.162Z" fill="#5564A0"/>
<path d="M52.6234 785.584C51.6961 786.906 50.8019 788.26 49.9078 789.614C69.745 838.199 94.7155 882.788 124.024 922.884L207.414 972.592C149.193 926.914 94.7817 864.952 52.6234 785.584Z" fill="#793EA3"/>
<path d="M579.454 1030.56C568.26 1043.08 553.092 1052.92 534.58 1059.66C514.577 1067.71 490.368 1072.04 462.814 1072.04C430.724 1072.04 395.156 1066.2 358.23 1054.27L344.188 1054.14L480.069 1135.16C484.407 1133.97 488.58 1132.68 492.587 1131.26C543.588 1111.58 568.492 1072.5 579.454 1030.56Z" fill="#2D899E"/>
<path d="M896.386 629.524L788.49 804.08C788.556 805.798 788.622 807.482 788.689 809.167L894.995 835.557C895.26 833.311 895.558 831.065 895.79 828.819C904.301 746.71 902.877 681.379 896.419 629.524H896.386Z" fill="#3AAACC"/>
<path d="M675.262 1088.46C647.642 1115.47 615.883 1138.33 581.043 1155.97C582.368 1155.97 583.693 1156 585.017 1156C586.806 1156 588.594 1156 590.415 1156C610.12 1155.83 634.296 1151.21 660.359 1141.9C674.765 1136.51 689.668 1129.74 704.703 1121.45L675.295 1088.49L675.262 1088.46Z" fill="#5564A0"/>
<path d="M709.538 1118.68C791.57 1071.91 875.589 981.741 894.3 841.039L788.755 814.848C788.755 816.334 788.788 817.787 788.788 819.273C788.788 922.62 746.862 1016.35 679.137 1084.56L709.538 1118.64V1118.68Z" fill="#2D899E"/>
<path d="M571.936 1154.35C608.961 1136.51 642.641 1112.8 671.652 1084.36L638.336 1046.97L571.969 1154.35H571.936Z" fill="#2D899E"/>
<path d="M602.271 1006.55C594.555 1058.53 569.055 1119.34 495.932 1144.61L506.331 1150.81C525.505 1153.36 544.978 1154.98 564.716 1155.64L634.528 1042.75L602.271 1006.55Z" fill="#5564A0"/>
<path d="M598.33 901.68L598.993 901.548C599.258 902.671 605.252 929.226 605.252 965.227C605.252 975.598 604.722 987.191 603.232 999.412L637.508 1037.89L777.164 812.008L777.363 811.71L499.475 714.21C499.475 714.21 499.707 714.507 499.84 714.639C553.059 779.739 586.243 843.054 598.364 901.68H598.33Z" fill="#2D899E"/>
<path d="M782.926 802.627C774.448 611.986 621.38 458.238 430.691 448C423.968 462.796 419.464 478.32 417.311 494.636C406.25 578.396 457.085 660.142 493.017 706.118L780.31 806.921L782.959 802.627H782.926Z" fill="#3AAACC"/>
<path d="M486.493 1147.84C488.381 1148.17 490.302 1148.44 492.189 1148.73L489.242 1146.98C488.348 1147.28 487.421 1147.54 486.493 1147.84Z" fill="#5D5D5D"/>
<path d="M783.257 813.461L782.761 813.329L641.317 1042.08L675.494 1080.46C742.093 1013.25 783.324 920.969 783.324 819.241C783.324 817.292 783.291 815.376 783.257 813.428V813.461Z" fill="#3AAACC"/>
<path d="M849.393 229.681C813.792 177.264 762.592 136.441 702.484 113.552L712.552 206.825C745.007 213.563 778.886 224.925 811.705 240.019L849.393 229.714V229.681Z" fill="#27C46A"/>
<path d="M1010.21 411.107C1010.01 410.578 1009.85 410.017 1009.65 409.488C1009.02 407.639 1008.36 405.822 1007.73 404.006C1006.87 401.495 1005.97 399.018 1005.08 396.541C1004.38 394.658 1003.72 392.776 1003.02 390.926C1002.13 388.548 1001.27 386.17 1000.37 383.792C999.679 381.909 998.951 380.06 998.255 378.177C997.361 375.832 996.467 373.52 995.539 371.208C994.844 369.359 994.115 367.542 993.387 365.725C992.46 363.38 991.532 361.068 990.572 358.756C989.843 357.006 989.148 355.222 988.419 353.472C987.426 351.061 986.399 348.65 985.372 346.272C984.71 344.653 984.015 343.068 983.319 341.449C982.061 338.543 980.802 335.669 979.544 332.796C979.08 331.739 978.616 330.682 978.153 329.658C976.431 325.827 974.709 322.062 972.954 318.296C972.258 316.843 971.596 315.39 970.9 313.937C969.807 311.592 968.681 309.247 967.555 306.935C966.761 305.283 965.966 303.665 965.171 302.046C964.608 300.89 964.045 299.767 963.482 298.611C963.084 297.819 962.654 296.993 962.257 296.2C961.23 294.186 960.203 292.204 959.177 290.222C958.316 288.571 957.421 286.886 956.56 285.235C955.534 283.286 954.474 281.37 953.447 279.422C952.553 277.77 951.659 276.152 950.765 274.501C949.705 272.585 948.645 270.702 947.586 268.787C946.691 267.201 945.797 265.583 944.87 263.997C943.777 262.082 942.651 260.166 941.525 258.284C940.631 256.764 939.77 255.245 938.876 253.759C937.65 251.711 936.425 249.663 935.167 247.648C934.372 246.327 933.577 245.006 932.782 243.718C930.795 240.514 928.775 237.31 926.755 234.14C926.026 233.017 925.298 231.894 924.569 230.771C923.211 228.69 921.853 226.576 920.463 224.528C919.535 223.141 918.608 221.787 917.681 220.433C916.952 219.343 916.224 218.286 915.495 217.229L857.97 232.984C867.707 248.012 876.085 263.799 883.106 280.181C924.437 308.289 973.119 350.764 1010.28 411.107H1010.21Z" fill="#1AAD71"/>
<path d="M819.322 243.586C838.365 252.735 856.977 263.139 874.661 274.633C868.27 260.662 860.885 247.252 852.572 234.503L819.322 243.586Z" fill="#52CC52"/>
<path d="M1100.65 859.932C1105.59 850.75 1109.66 843.319 1113.6 837.968C1141.59 768.046 1156.79 696.11 1159.5 624.603L1103.7 528.391L1100.65 859.932Z" fill="#7FD0EA"/>
<path d="M934.305 1040.86C927.848 1047.37 924.602 1052.55 923.112 1056.25C925.529 1055.53 929.139 1053.94 934.007 1050.37C1019.48 988.05 1061.14 929.127 1084.96 888.37L1043.23 877.999C1020.31 936.723 984.379 990.428 934.305 1040.86Z" fill="#7FD0EA"/>
<path d="M979.246 298.776C983.021 306.472 986.763 314.234 990.406 322.227L1033.76 396.937L1086.61 311.393C1076.78 293.426 1066.05 275.756 1054.32 258.482C944.572 96.6416 774.183 0 598.562 0C687.118 9.18194 765.871 42.8711 833.165 100.506C890.359 149.454 939.174 215.776 979.246 298.743V298.776Z" fill="#00F5DA"/>
<path d="M1089.63 316.975L1036.87 402.288L1098.4 508.343L1099.96 337.255C1099 335.24 1097.94 333.225 1096.94 331.21C1094.56 326.454 1092.11 321.698 1089.59 316.975H1089.63Z" fill="#40BDED"/>
<path d="M1159.83 614.265C1161.76 523.272 1143.41 433.17 1105.32 348.98L1103.77 517.657L1159.83 614.265Z" fill="#00F5DA"/>
<path d="M1033.59 407.573L1027.7 417.118C1039.09 450.807 1049.42 486.478 1058.63 524.098L1061.67 536.615L1061.41 536.516C1064.75 551.643 1067.24 567.035 1068.83 582.426C1075.72 649.507 1081.08 737.231 1061.01 821.157C1056.77 838.827 1051.44 856.035 1045.15 872.846L1087.77 883.415C1090.42 878.758 1092.84 874.366 1095.06 870.27L1098.27 519.077L1033.56 407.573H1033.59Z" fill="#A4F4E7"/>
<path d="M1025.41 410.413L1030.48 402.222L1007.96 363.414C1014.02 378.607 1019.81 394.295 1025.38 410.413H1025.41Z" fill="#5D5D5D"/>
<path d="M296.201 394.097C284.875 384.056 273.88 376.955 262.62 372.43C252.188 368.235 241.392 366.221 229.635 366.221C211.222 366.221 190.325 371.142 163.931 381.645C159.857 383.296 155.751 384.684 151.644 385.906C141.378 388.944 131.045 390.695 120.348 391.19C118.196 391.289 116.076 391.355 113.89 391.355C95.3778 391.355 78.3556 387.656 63.3534 384.419L58.4852 383.363C57.3923 383.131 56.2663 382.801 55.1734 382.405C54.8091 382.273 54.4449 382.107 54.0806 381.975C53.3189 381.678 52.5572 381.414 51.8286 381.051C51.3981 380.852 50.9675 380.654 50.537 380.423C49.8416 380.06 49.1792 379.696 48.4837 379.333C48.0532 379.069 47.6227 378.805 47.1922 378.54C46.5298 378.144 45.8675 377.715 45.2382 377.252C44.8408 376.955 44.4103 376.658 44.0129 376.36C43.3506 375.865 42.7544 375.37 42.1252 374.841C41.7609 374.544 41.3966 374.247 41.0323 373.916C40.3369 373.289 39.6745 372.628 39.0122 371.968C38.7804 371.703 38.4823 371.472 38.2505 371.208C37.3894 370.316 36.5946 369.391 35.8329 368.401C26.3614 390.398 18.7113 411.206 12.8495 430.891C28.8452 481.49 95.4772 519.572 175.025 519.572C246.558 519.572 307.627 488.823 330.875 445.853C323.159 425.474 311.435 407.672 296.135 394.13L296.201 394.097Z" fill="#F805D1"/>
<path d="M288.882 640.358L286.763 639.631L281.298 637.716C281.298 637.716 281.298 637.716 281.365 637.65L0 538.927C2.31821 557.952 7.6501 574.961 16.095 589.791C49.6097 648.549 110.016 685.079 173.8 685.079C195.856 685.079 218.077 680.851 239.802 672.462C244.075 670.81 248.214 668.961 252.288 666.913C252.387 666.814 252.486 666.748 252.553 666.649C259.838 662.95 266.76 658.623 273.317 653.735C278.781 649.672 283.981 645.18 288.882 640.358Z" fill="#8F239B"/>
<path d="M337.432 453.944C311.601 496.452 250.4 526.409 179.198 526.409C101.041 526.409 34.9719 490.309 14.4723 441.129C4.86825 476.107 1.19223 507.187 3.51044 534.303L289.512 634.677L295.141 636.626L297.46 637.451C305.143 629.26 312.031 620.144 318.059 610.236C322.596 602.771 326.636 594.877 330.146 586.587C335.677 573.475 339.883 559.405 342.599 544.542C348.427 512.537 346.341 481.193 337.432 453.978V453.944Z" fill="#DA26DD"/>
<path d="M642.377 306.472C621.513 292.072 600.284 278.398 578.758 265.682C566.24 258.283 553.556 251.579 540.74 245.468C526.333 255.773 514.643 267.597 502.688 279.686C491.858 290.651 480.665 301.98 467.318 311.955C450.826 324.274 433.174 332.862 412.741 338.477C427.346 340.888 442.547 344.323 458.377 348.716C460.496 348.055 462.616 347.361 464.735 346.734C484.639 340.855 505.536 336.429 528.619 333.225C528.85 333.192 529.082 333.159 529.347 333.126C563.425 315.291 597.933 306.208 632.375 306.208C635.72 306.208 639.032 306.274 642.343 306.472H642.377Z" fill="#9948C9"/>
<path d="M283.848 347.989C290.704 345.38 295.274 342.87 303.09 341.813C304.712 341.35 306.368 340.888 308.024 340.459C303.785 336.627 299.182 333.027 294.28 329.592C292.128 328.601 290.008 327.61 287.889 326.521C287.061 329.856 284.743 339.27 283.848 347.956V347.989Z" fill="#B127BB"/>
<path d="M248.38 306.935L223.012 352.778C225.264 352.646 227.45 352.547 229.635 352.547C231.258 352.547 232.848 352.58 234.471 352.646C234.967 352.646 235.497 352.712 235.994 352.745C237.054 352.811 238.113 352.877 239.206 352.976C239.836 353.042 240.432 353.109 241.028 353.175C241.988 353.274 242.915 353.373 243.876 353.505C244.505 353.604 245.134 353.703 245.797 353.802C246.691 353.934 247.585 354.099 248.479 354.231C249.108 354.364 249.771 354.496 250.4 354.595C251.294 354.76 252.155 354.958 253.016 355.156C253.645 355.288 254.308 355.454 254.937 355.619C255.798 355.817 256.659 356.048 257.52 356.312C258.149 356.51 258.779 356.676 259.408 356.874C260.269 357.138 261.13 357.402 261.991 357.699C262.62 357.898 263.216 358.096 263.813 358.327C264.044 358.393 264.276 358.459 264.475 358.558C274.576 352.514 274.807 351.953 276.53 350.929C276.53 350.929 280.172 331.673 282.789 323.911C277.291 320.906 271.959 317.636 266.826 314.168C260.931 311.526 254.771 309.081 248.38 306.968V306.935Z" fill="#793EA3"/>
<path d="M42.7213 350.994L43.4168 351.259C42.9863 352.943 43.6155 355.288 45.2051 357.897C48.6493 363.479 55.7695 368.797 61.3995 370.019L66.3008 371.076C79.4484 373.916 92.9934 376.856 107.598 377.549C109.685 377.649 111.771 377.682 113.924 377.682C129.456 377.682 144.16 374.808 158.864 368.962C181.019 360.143 199.664 355.057 216.488 353.306L243.081 305.217C222.316 298.908 199.333 295.341 175.124 295.341C127.104 295.341 83.8199 309.213 53.5176 331.309C49.9409 336.594 46.861 341.846 44.4765 346.998C43.8473 348.319 43.2843 349.64 42.7544 350.994H42.7213Z" fill="#B127BB"/>
<path d="M492.322 356.114C500.104 350.499 507.92 345.413 515.769 340.756C498.912 343.563 483.148 347.13 468.014 351.49C475.002 353.571 482.122 355.883 489.341 358.327C490.335 357.6 491.295 356.841 492.289 356.114H492.322Z" fill="#8F239B"/>
<path d="M914.071 622.754C926.093 634.248 937.783 645.907 949.043 657.764C952.553 661.463 956.229 665.46 959.872 669.456C969.443 679.893 985.207 697.101 991.201 698.851C992.062 697.894 992.261 696.605 990.837 692.081C988.154 683.724 980.571 669.39 966.198 645.576C953.481 624.504 939.704 603.663 925.066 583.152L911.521 605.05C912.448 610.764 913.276 616.676 914.071 622.754Z" fill="#5564A0"/>
<path d="M210.792 225.552C210.626 225.618 210.461 225.651 210.295 225.717C211.123 227.699 211.984 229.648 212.911 231.629C213.805 233.545 214.766 235.428 215.792 237.343C215.759 237.277 215.693 237.178 215.66 237.112C213.838 233.248 212.249 229.384 210.792 225.552Z" fill="#5D5D5D"/>
<path d="M200.525 237.476C199.432 235.131 198.406 232.785 197.445 230.44C179.264 237.409 163.401 244.874 150.154 251.909C113.692 271.33 83.2569 294.912 63.3203 318.429C93.3246 300.659 132.403 289.859 175.091 289.859C200.26 289.859 224.171 293.624 245.73 300.362L246.79 298.446C226.489 280.347 210.692 258.845 200.525 237.442V237.476Z" fill="#793EA3"/>
<path d="M921.589 578.331C914.369 568.356 906.918 558.48 899.268 548.671C903.275 563.071 906.984 579.057 910.13 596.893L921.589 578.331Z" fill="#8F239B"/>
<path d="M892.379 602.573C885.325 561.651 875.158 530.472 865.124 506.824C855.321 483.737 845.651 467.85 839.127 457.149C812.931 414.145 751.498 345.743 670.758 326.719C664.698 325.299 658.538 324.143 652.245 323.317C644.595 323.284 607.239 316.612 558.325 334.811C540.475 341.945 522.691 351.721 505.006 363.975C503.449 365.065 501.86 366.122 500.27 367.278C469.604 389.341 447.183 414.608 433.141 442.748C622.97 454.044 775.541 605.546 787.894 794.569L895.161 621.036C894.3 614.695 893.34 608.552 892.313 602.64L892.379 602.573Z" fill="#7FD0EA"/>
<path d="M685.23 37.025C683.442 36.4635 681.654 35.869 679.865 35.3405C678.507 34.9112 677.15 34.5148 675.759 34.0855C673.937 33.557 672.083 33.0286 670.228 32.5001C668.903 32.1368 667.546 31.7404 666.221 31.3771C664.267 30.8487 662.28 30.3532 660.326 29.8578C659.068 29.5275 657.842 29.1972 656.617 28.9C654.266 28.3385 651.914 27.81 649.596 27.2486C648.702 27.0504 647.808 26.8522 646.914 26.621C643.668 25.9274 640.423 25.2338 637.144 24.6063C636.316 24.4411 635.455 24.309 634.627 24.1439C632.176 23.6815 629.726 23.2191 627.242 22.8227C626.017 22.6246 624.758 22.4264 623.533 22.2282C621.446 21.8979 619.327 21.5676 617.24 21.2704C615.883 21.0722 614.492 20.874 613.134 20.7089C611.114 20.4447 609.127 20.1804 607.14 19.9162C605.716 19.7511 604.292 19.5859 602.834 19.4208C600.847 19.1896 598.86 18.9914 596.873 18.7932C595.416 18.6611 593.992 18.529 592.535 18.3969C590.515 18.2318 588.495 18.0666 586.474 17.9015C585.05 17.8024 583.626 17.7033 582.202 17.6042C580.083 17.4721 577.963 17.34 575.844 17.2409C574.486 17.1748 573.128 17.0758 571.737 17.0427C569.419 16.9436 567.068 16.8776 564.716 16.8115C563.557 16.7785 562.398 16.7124 561.239 16.7124C557.729 16.6464 554.185 16.5803 550.642 16.5803C547.098 16.5803 543.753 16.6134 540.342 16.6794C538.885 16.6794 537.428 16.7785 535.971 16.8115C534.017 16.8776 532.063 16.9106 530.109 16.9767C528.85 17.0427 527.625 17.1088 526.4 17.1748C524.247 17.2739 522.094 17.373 519.942 17.5051C518.716 17.5712 517.524 17.6703 516.299 17.7694C514.146 17.9015 511.994 18.0336 509.841 18.1987C508.318 18.3308 506.794 18.463 505.271 18.5951C503.449 18.7602 501.628 18.8923 499.806 19.0575C498.217 19.2226 496.627 19.3878 495.071 19.5529C493.349 19.718 491.593 19.8832 489.871 20.0814C488.348 20.2465 486.824 20.4447 485.301 20.6428C483.513 20.841 481.758 21.0722 480.002 21.3034C478.545 21.5016 477.088 21.6998 475.631 21.8979C473.842 22.1622 472.021 22.3934 470.266 22.6576C468.842 22.8558 467.451 23.087 466.027 23.3182C464.238 23.6154 462.417 23.8796 460.629 24.1769C459.172 24.4411 457.714 24.6723 456.257 24.9366C454.535 25.2338 452.813 25.498 451.124 25.8283C449.667 26.0926 448.243 26.3568 446.819 26.654C445.097 26.9843 443.375 27.2816 441.652 27.6119C440.295 27.8761 438.97 28.1733 437.612 28.4376C435.857 28.8009 434.102 29.1642 432.313 29.5275C431.055 29.7917 429.796 30.089 428.538 30.3532C426.75 30.7496 424.928 31.1459 423.107 31.5423C421.881 31.8065 420.689 32.1038 419.464 32.401C417.642 32.8304 415.821 33.2267 414.033 33.6891C412.774 33.9864 411.549 34.3167 410.324 34.6139C408.568 35.0433 406.813 35.4727 405.091 35.9351C403.833 36.2654 402.607 36.5956 401.349 36.9259C399.991 37.2892 398.633 37.6526 397.275 38.0159L305.176 204.513L257.851 290.057C266.694 297.72 276.397 304.689 286.895 310.601C299.281 270.966 319.483 233.974 346.109 202.003C359.753 185.621 375.054 170.526 391.844 157.117C448.74 111.637 517.458 87.5918 590.548 87.5918C627.01 87.5918 662.644 93.7351 696.192 105.493L688.708 38.181C687.582 37.8177 686.456 37.4544 685.33 37.058L685.23 37.025Z" fill="#29E57E"/>
<path d="M911.024 210.92C909.832 209.236 908.673 207.584 907.481 205.966C906.454 204.546 905.427 203.126 904.401 201.738C903.242 200.12 902.049 198.535 900.857 196.949C899.797 195.562 898.771 194.175 897.711 192.788C896.519 191.235 895.293 189.683 894.101 188.131C893.041 186.776 891.982 185.455 890.922 184.101C889.697 182.549 888.438 181.03 887.18 179.51C886.12 178.222 885.093 176.934 884.034 175.646C882.709 174.06 881.384 172.475 880.026 170.923C879.033 169.767 878.039 168.578 877.046 167.422C875.39 165.539 873.734 163.656 872.078 161.774C871.085 160.684 870.124 159.561 869.131 158.471C867.077 156.225 865.024 153.979 862.971 151.799C861.977 150.742 860.984 149.718 859.99 148.695C858.566 147.175 857.109 145.689 855.685 144.203C854.592 143.08 853.499 141.99 852.373 140.9C851.016 139.546 849.658 138.158 848.267 136.837C847.141 135.714 845.982 134.624 844.823 133.534C843.465 132.246 842.107 130.958 840.749 129.67C839.59 128.58 838.398 127.49 837.239 126.433C835.881 125.178 834.49 123.956 833.099 122.701C831.907 121.644 830.748 120.587 829.556 119.53C828.132 118.308 826.741 117.086 825.317 115.897C824.157 114.906 822.965 113.882 821.806 112.892C820.316 111.67 818.859 110.447 817.335 109.225C816.209 108.301 815.083 107.376 813.924 106.451C812.268 105.13 810.579 103.842 808.89 102.521C807.93 101.761 806.97 101.001 805.976 100.275C803.36 98.293 800.744 96.3443 798.094 94.4286C797.2 93.768 796.306 93.1735 795.412 92.513C793.59 91.2248 791.769 89.9037 789.947 88.6486C788.788 87.8559 787.629 87.0963 786.503 86.3366C784.88 85.2467 783.291 84.1567 781.668 83.1328C780.443 82.3402 779.217 81.5475 777.992 80.7548C776.435 79.7639 774.879 78.7731 773.289 77.7822C772.031 76.9895 770.739 76.2299 769.481 75.4372C767.924 74.5124 766.368 73.5876 764.811 72.6628C763.52 71.9031 762.228 71.1765 760.936 70.4168C759.347 69.492 757.757 68.6333 756.168 67.7085C754.876 67.0149 753.618 66.2883 752.326 65.5947C750.67 64.7029 749.014 63.8442 747.358 62.9524C746.1 62.2918 744.875 61.6643 743.616 61.0037C741.828 60.0789 740.006 59.1871 738.185 58.2954C737.059 57.7339 735.966 57.1724 734.84 56.6439C732.356 55.4549 729.872 54.2989 727.389 53.1759C726.793 52.9117 726.196 52.6144 725.567 52.3502C722.752 51.0951 719.904 49.8731 717.056 48.651C715.963 48.1886 714.87 47.7592 713.777 47.3299C711.824 46.5372 709.903 45.7445 707.949 44.9848C706.69 44.4894 705.432 44.027 704.173 43.5316C702.385 42.838 700.564 42.1774 698.742 41.5168C697.417 41.0544 696.093 40.592 694.768 40.1296L701.921 107.442C742.026 122.371 778.985 145.425 810.646 175.712C827.403 191.731 842.173 209.302 854.857 228.128L912.249 212.44C911.885 211.911 911.521 211.383 911.157 210.887L911.024 210.92Z" fill="#52CC52"/>
<path d="M387.473 40.625C386.38 40.9223 385.287 41.2526 384.161 41.5829C382.406 42.0783 380.65 42.6067 378.895 43.1022C377.869 43.3994 376.842 43.7297 375.815 44.06C374.027 44.5885 372.239 45.1499 370.483 45.7114C369.424 46.0417 368.397 46.372 367.37 46.7023C365.648 47.2638 363.926 47.7922 362.204 48.3537C361.277 48.651 360.349 48.9482 359.422 49.2785C357.634 49.873 355.846 50.4675 354.09 51.0621C353.229 51.3593 352.401 51.6566 351.54 51.9208C349.719 52.5483 347.897 53.1759 346.142 53.8034C345.347 54.0677 344.586 54.3649 343.791 54.6622C341.969 55.2897 340.115 55.9503 338.326 56.6109C337.598 56.8751 336.869 57.1393 336.141 57.4366C334.319 58.0971 332.498 58.7577 330.709 59.4513C329.981 59.7155 329.285 60.0128 328.59 60.277C326.802 60.9706 325.013 61.6312 323.258 62.3248C322.629 62.556 322.033 62.8202 321.437 63.0514C319.615 63.7781 317.761 64.4717 315.972 65.2313C315.542 65.3965 315.078 65.5946 314.614 65.7928C312.694 66.5855 310.773 67.3451 308.852 68.1378C308.488 68.2699 308.123 68.4351 307.726 68.6002C305.772 69.4259 303.818 70.2186 301.897 71.0443C301.632 71.1434 301.401 71.2755 301.136 71.3746C299.116 72.2334 297.129 73.0921 295.141 73.9509C295.042 73.9839 294.976 74.0169 294.877 74.0499C288.485 76.8243 282.358 79.5987 276.53 82.3401C275.536 82.9677 274.576 83.5952 273.615 84.2227C272.887 84.6851 272.092 85.1806 271.363 85.676C270.204 86.4357 269.078 87.1953 267.952 87.922C267.356 88.3183 266.76 88.7146 266.164 89.111C264.938 89.9367 263.746 90.7624 262.521 91.5881C262.09 91.8854 261.627 92.1826 261.196 92.5129C259.905 93.3717 258.679 94.2634 257.454 95.1222C257.09 95.3534 256.758 95.6176 256.394 95.8488C255.07 96.7736 253.778 97.6984 252.486 98.6232C252.255 98.7884 251.99 98.9535 251.758 99.1186C250.466 100.043 249.208 100.935 247.949 101.86C247.751 102.025 247.519 102.157 247.32 102.322C245.962 103.28 244.671 104.271 243.346 105.196C243.247 105.262 243.147 105.328 243.048 105.427C241.657 106.451 240.299 107.442 238.975 108.4C232.517 113.123 226.754 118.572 221.853 124.485C199.995 150.973 196.187 187.338 210.759 225.618C212.216 229.449 213.805 233.281 215.627 237.178C215.627 237.244 215.726 237.343 215.759 237.409C224.734 254.584 237.55 271.561 253.513 286.292L298.321 205.272L389.725 40.0305C388.963 40.2287 388.168 40.4599 387.406 40.6911L387.473 40.625Z" fill="#5CEA5C"/>
<path d="M696.722 111.405C663.539 99.5149 627.739 93.0083 590.449 93.0083C496.13 93.0083 410.456 134.393 352.666 201.903C325.444 233.71 304.448 271.33 291.631 313.177C313.29 324.506 338.095 331.541 365.185 331.541C374.491 331.541 383.896 330.682 393.169 328.964C418.967 324.241 439.897 315.357 459.072 301.022C471.591 291.675 481.923 281.205 492.885 270.107C503.35 259.505 513.948 248.804 526.565 238.995C548.092 222.249 575.513 208.113 618.234 201.771C627.507 200.384 637.641 199.691 648.271 199.691C666.784 199.691 686.522 201.771 706.922 205.669L696.722 111.405Z" fill="#22F4A8"/>
</g>
<defs>
<clipPath id="clip0_136_13">
<rect width="1160" height="1156" fill="white"/>
</clipPath>
</defs>
</svg>
